# xmcd
#
# Track frame offsets:
#	150
#	25241
#	46143
#	57342
#	80631
#	102402
#	126454
#	158657
#	184583
#
# Disc length: 2770 seconds
#
# Revision: 0
# Processed by: cddbd v1.4PL0 Copyright (c) Steve Scherf et al.
# Submitted via: EasyCDDAExtractor 4.6.9.1
#
DISCID=720ad009
DTITLE=Sam Taylor - I Came From the Dirt
DYEAR=1999
DGENRE=Blues
TTITLE0=Blues Is Gonna Getcha
TTITLE1=Live And You Learn
TTITLE2=Back Against The Wall
TTITLE3=Loves Last Stand
TTITLE4=Ring My Bell
TTITLE5=Justice
TTITLE6=My Expectation
TTITLE7=Enuff A Dat Stuff
TTITLE8=Old Shoe
EXTD=
EXTT0=
EXTT1=
EXTT2=
EXTT3=
EXTT4=
EXTT5=
EXTT6=
EXTT7=
EXTT8=
PLAYORDER=
